<svg width="40" height="40" viewBox="0 0 40 40" fill="none" xmlns="http://www.w3.org/2000/svg">
<g clip-path="url(#clip0_240_313)">
<path d="M0 20C0 31.0456 8.9543 40 20 40L21.7391 20L20 0C8.9543 0 0 8.9543 0 20Z" fill="#FF7855"/>
<path d="M20 0V40C31.0456 40 40 31.0456 40 20C40 8.95437 31.0456 0 20 0Z" fill="#FF562B"/>
<path d="M12.6215 8.93225L8.93227 12.6215L16.3108 20L8.93227 27.3785L12.6215 31.0677L20 23.6892L21.7391 20L20 16.3108L12.6215 8.93225Z" fill="white"/>
<path d="M31.0677 12.6215L27.3785 8.93225L20 16.3108V23.6892L27.3785 31.0677L31.0677 27.3785L23.6892 20L31.0677 12.6215Z" fill="#FFEAC3"/>
</g>
<defs>
<clipPath id="clip0_240_313">
<rect width="40" height="40" fill="white"/>
</clipPath>
</defs>
</svg>
