<svg width="685" height="668" viewBox="0 0 685 668" fill="none" xmlns="http://www.w3.org/2000/svg">
<path d="M427.505 535.422L500.172 604.051C500.172 604.051 426.224 633.812 383.273 639.925C330.15 647.485 296.297 645.097 244.257 632.126C181.167 616.401 148.018 591.844 102.082 546.34C57.1173 501.797 37.2888 468.623 16.7774 409.083C-1.26047 356.724 -3.50547 325.054 4.13974 270.266C11.5366 217.258 27.1039 187.466 56.2706 142.368C84.9475 98.0265 109.62 74.4605 154.213 45.6638C213.194 7.57658 248.038 1.31672 318.504 0.209907C375.394 -0.68367 410.606 0.269346 462.259 23.8274C498.783 40.4855 515.97 59.7014 515.97 59.7014L432.245 118.972C432.245 118.972 406.598 106.26 365.896 100.255C318.25 93.2244 281.905 99.5275 237.939 118.972C191.154 139.662 168.86 161.368 139.996 203.197C109.452 247.461 99.4338 280.719 102.082 334.216C105.007 393.28 125.847 428.37 166.851 471.473C212.183 519.126 252.758 538.579 318.504 546.34C360.988 551.355 427.505 535.422 427.505 535.422Z" fill="#67CBC3"/>
<path d="M583.898 118.972L500.172 176.682C500.172 176.682 533.615 219.84 545.984 248.43C560.486 281.95 564.625 304.112 561.782 340.455C559.823 365.495 545.984 396.605 545.984 396.605L432.245 284.304L294.809 281.184L685 668L678.681 535.422L618.652 471.473C618.652 471.473 648.48 415.733 653.406 377.888C657.258 348.285 660.848 331.188 658.145 301.461C653.836 254.078 645.406 226.003 624.971 182.921C612.268 156.14 583.898 118.972 583.898 118.972Z" fill="#67CBC3"/>
</svg>
